<svg width="112" height="40" viewBox="0 0 112 40" fill="none" xmlns="http://www.w3.org/2000/svg">
<path d="M63.8763 24.321C63.4537 25.2672 62.8853 26.0899 62.1673 26.7893C61.4492 27.4886 60.6302 28.0347 59.699 28.4311C58.764 28.8238 57.7767 29.022 56.7221 29.022C55.6674 29.022 54.6315 28.82 53.6853 28.4086C52.7392 28.001 51.9052 27.44 51.1946 26.722C50.4803 26.0077 49.9193 25.1774 49.508 24.2313C49.1003 23.2851 48.8946 22.2716 48.8946 21.1945C48.8946 20.1175 49.0966 19.0965 49.508 18.1354C49.9156 17.1705 50.4766 16.3365 51.1946 15.6222C51.9089 14.9079 52.7392 14.3469 53.6853 13.9355C54.6315 13.5279 55.645 13.3222 56.7221 13.3222C57.7991 13.3222 58.8201 13.5242 59.7812 13.9355C60.7461 14.3469 61.5801 14.9042 62.2944 15.6222C63.0087 16.3365 63.5697 17.1705 63.9811 18.1354C64.385 19.1002 64.5944 20.1175 64.5944 21.1945C64.5383 22.3314 64.2952 23.3748 63.8726 24.321H63.8763ZM64.1568 13.7149C63.192 12.75 62.0812 11.9908 60.8097 11.4224C59.5419 10.8539 58.2068 10.5697 56.8081 10.5697C55.2935 10.5697 53.8835 10.8464 52.5858 11.3999C51.2881 11.9534 50.1662 12.7126 49.22 13.67C48.2738 14.6349 47.5296 15.7606 46.9873 17.0583C46.4451 18.356 46.1758 19.736 46.1758 21.1908C46.1758 22.6456 46.4525 24.1041 47.006 25.3906C47.5595 26.6771 48.3187 27.7803 49.2761 28.7153C50.241 29.6503 51.3554 30.3795 52.6232 30.9031C53.891 31.4267 55.2561 31.6922 56.7109 31.6922C58.2816 31.6922 59.7476 31.3107 61.1051 30.5329C62.459 29.7625 63.6183 28.835 64.5832 27.7542V30.4207C64.5832 30.7984 64.7141 31.12 64.9759 31.3855C65.2414 31.6511 65.5555 31.7782 65.9407 31.7782C66.3259 31.7782 66.6401 31.6473 66.9056 31.3855C67.1711 31.12 67.2983 30.8059 67.2983 30.4207V21.1945C67.2983 19.736 67.0178 18.3635 66.4456 17.0845C65.8771 15.798 65.1105 14.6798 64.1531 13.7186L64.1568 13.7149Z" fill="black"/>
<path d="M71.9371 10.4761C71.5594 10.4761 71.2378 10.607 70.9723 10.8688C70.7067 11.1343 70.5796 11.4559 70.5796 11.8336V30.3757C70.5796 30.7534 70.7105 31.075 70.9723 31.3405C71.2378 31.6061 71.5519 31.7332 71.9371 31.7332C72.3223 31.7332 72.6365 31.6023 72.902 31.3405C73.1675 31.075 73.2947 30.7609 73.2947 30.3757V11.8374C73.2947 11.4596 73.1638 11.138 72.902 10.8725C72.6365 10.607 72.3149 10.4798 71.9371 10.4798V10.4761Z" fill="black"/>
<path d="M71.9408 3.78906C71.4436 3.78906 71.0211 3.96479 70.6733 4.31251C70.3256 4.66022 70.1499 5.08272 70.1499 5.57999C70.1499 6.07726 70.3256 6.49975 70.6733 6.84747C71.0211 7.19519 71.4436 7.37091 71.9408 7.37091C72.4381 7.37091 72.8606 7.19519 73.2083 6.84747C73.556 6.49975 73.7318 6.07726 73.7318 5.57999C73.7318 5.08272 73.556 4.66022 73.2083 4.31251C72.8606 3.96479 72.4381 3.78906 71.9408 3.78906Z" fill="black"/>
<path d="M89.3222 11.8377C89.3222 11.46 89.18 11.1383 88.9033 10.8728C88.6265 10.6073 88.2563 10.4801 87.7888 10.4801C86.2443 10.4801 84.8119 10.8055 83.5067 11.4674C82.1941 12.1219 81.0721 12.9596 80.1409 13.9806V11.8377C80.1409 11.46 80.01 11.1383 79.7482 10.8728C79.4827 10.6073 79.1611 10.4801 78.7833 10.4801C78.4056 10.4801 78.084 10.611 77.8185 10.8728C77.5529 11.1383 77.4258 11.46 77.4258 11.8377V30.3797C77.4258 30.7574 77.5567 31.0791 77.8185 31.3446C78.084 31.6101 78.3981 31.7373 78.7833 31.7373C79.1685 31.7373 79.4827 31.6064 79.7482 31.3446C80.0137 31.0791 80.1409 30.7649 80.1409 30.3797V20.7123C80.1708 19.7212 80.3952 18.7751 80.8178 17.87C81.2404 16.9687 81.7939 16.1609 82.482 15.4653C83.1627 14.766 83.9592 14.2125 84.8643 13.8011C85.7656 13.3935 86.7454 13.1878 87.7963 13.1878C88.2638 13.1878 88.6378 13.0569 88.9108 12.7951C89.1875 12.5296 89.3296 12.2154 89.3296 11.8302L89.3222 11.8377Z" fill="black"/>
<path d="M106.111 24.3213C105.688 25.2675 105.12 26.0902 104.402 26.7896C103.688 27.4889 102.865 28.035 101.934 28.4314C100.999 28.8241 100.011 29.0223 98.9568 29.0223C97.9021 29.0223 96.8662 28.8203 95.92 28.4089C94.9739 28.0013 94.1399 27.4403 93.4293 26.7223C92.715 26.008 92.154 25.1777 91.7427 24.2316C91.3313 23.2854 91.1293 22.2719 91.1293 21.1948C91.1293 20.1178 91.3313 19.0968 91.7427 18.1356C92.1503 17.1708 92.7113 16.3368 93.4293 15.6225C94.1436 14.9082 94.9739 14.3472 95.92 13.9358C96.8662 13.5282 97.8797 13.3225 98.9568 13.3225C100.034 13.3225 101.055 13.5244 102.016 13.9358C102.981 14.3472 103.815 14.9044 104.529 15.6225C105.243 16.3368 105.804 17.1708 106.216 18.1356C106.623 19.1005 106.829 20.1178 106.829 21.1948C106.773 22.3317 106.53 23.3751 106.107 24.3213H106.111ZM108.692 17.0848C108.123 15.7983 107.356 14.6801 106.399 13.7189C105.434 12.754 104.32 11.9949 103.052 11.4264C101.784 10.858 100.449 10.5737 99.0503 10.5737C97.5356 10.5737 96.1257 10.8505 94.828 11.404C93.5303 11.9575 92.4084 12.7166 91.4622 13.674C90.516 14.6389 89.7718 15.7646 89.2295 17.0623C88.6872 18.36 88.418 19.74 88.418 21.1948C88.418 22.6496 88.6947 24.1081 89.2482 25.3946C89.8017 26.6811 90.5609 27.7844 91.5183 28.7193C92.4832 29.6543 93.5976 30.3836 94.8654 30.9071C96.1332 31.4307 97.4983 31.6962 98.953 31.6962C100.524 31.6962 101.99 31.3148 103.347 30.5369C104.701 29.7665 105.86 28.839 106.825 27.7582V30.4247C106.825 30.8024 106.956 31.124 107.218 31.3896C107.484 31.6551 107.798 31.7822 108.183 31.7822C108.568 31.7822 108.882 31.6514 109.148 31.3896C109.413 31.124 109.54 30.8099 109.54 30.4247V21.1986C109.54 19.74 109.26 18.3675 108.688 17.0885L108.692 17.0848Z" fill="black"/>
<path d="M18.7217 1.27682C29.066 1.2769 37.4434 9.65795 37.4434 19.9985C37.4433 30.339 29.0622 38.7201 18.7217 38.7202C8.38113 38.7202 7.70628e-05 30.339 0 19.9985C0 9.6579 8.38108 1.27682 18.7217 1.27682ZM18.793 9.40671C17.2933 9.40671 15.883 9.68427 14.5928 10.2378C13.3064 10.7837 12.1806 11.5461 11.2383 12.5034C10.2959 13.4607 9.55138 14.594 9.0166 15.8803C8.47807 17.1631 8.20899 18.4949 8.20898 19.9946C8.20898 21.4941 8.48569 22.9001 9.03906 24.1753C9.58881 25.443 10.3522 26.5575 11.3096 27.4887C12.2632 28.4125 13.385 29.1457 14.6416 29.6655C15.8981 30.1815 17.2666 30.4477 18.71 30.4477C20.2882 30.4477 21.7772 30.0511 23.1348 29.2807C23.9911 28.7871 24.7803 28.2257 25.4834 27.6049V28.6411C25.4834 29.1572 25.6703 29.617 26.0293 29.976C26.3883 30.3313 26.8482 30.5219 27.3643 30.5219C27.8804 30.5219 28.3439 30.3313 28.6992 29.976C29.0545 29.617 29.2451 29.1534 29.2451 28.6411L29.2529 28.645V19.9839C29.2529 18.5403 28.9651 17.1594 28.4004 15.8803C27.8395 14.6165 27.0726 13.4911 26.1191 12.5376C25.1655 11.5914 24.0507 10.8249 22.7979 10.2602C21.5302 9.69556 20.184 9.40676 18.793 9.40671ZM18.71 13.2104C19.6335 13.2104 20.5201 13.3862 21.3428 13.7339C22.1655 14.0817 22.8992 14.5715 23.5088 15.1811L23.5312 15.1704C24.137 15.7837 24.6308 16.5167 24.9785 17.3393C25.3225 18.1619 25.5019 19.0406 25.502 19.9604C25.4459 20.9402 25.2359 21.8491 24.877 22.6606C24.5105 23.4722 24.0206 24.1941 23.4072 24.7924C22.7902 25.3945 22.0757 25.8699 21.2754 26.2065C19.6562 26.8869 17.6967 26.876 16.1074 26.188C15.296 25.8402 14.5742 25.3539 13.9609 24.7407C13.3476 24.1311 12.8537 23.4048 12.5059 22.5932C12.1582 21.7855 11.9824 20.9102 11.9824 19.9829C11.9825 19.0557 12.1582 18.1697 12.5059 17.3471C12.8537 16.5244 13.3398 15.7945 13.9531 15.1811C14.5627 14.5753 15.2882 14.0817 16.0996 13.7339C16.9073 13.3861 17.7864 13.2105 18.71 13.2104Z" fill="black"/>
</svg>
